<mxfile host="app.diagrams.net" modified="2022-10-31T07:18:02.388Z" agent="5.0 (Windows NT 10.0; Win64; x64) AppleWebKit/537.36 (KHTML, like Gecko) Chrome/107.0.0.0 Safari/537.36 Edg/107.0.1418.26" etag="5nRfgn8O6QK3UJ0Y1sB3" version="20.5.1" type="github">
  <diagram id="esbuEfsjHjqXaueNE3MM" name="第 1 页">
    <mxGraphModel dx="1550" dy="859" grid="1" gridSize="10" guides="1" tooltips="1" connect="1" arrows="1" fold="1" page="1" pageScale="1" pageWidth="827" pageHeight="1169" math="0" shadow="0">
      <root>
        <mxCell id="0" />
        <mxCell id="1" parent="0" />
        <mxCell id="CsxcGwLY2P6ZBR0HJjW4-53" value="AbstractProduceA" style="html=1;fontStyle=3" vertex="1" parent="1">
          <mxGeometry x="10" y="350" width="120" height="50" as="geometry" />
        </mxCell>
        <mxCell id="CsxcGwLY2P6ZBR0HJjW4-54" value="AbstractProduceB" style="html=1;fontStyle=3" vertex="1" parent="1">
          <mxGeometry x="160" y="350" width="120" height="50" as="geometry" />
        </mxCell>
        <mxCell id="CsxcGwLY2P6ZBR0HJjW4-55" value="ConcreteProduceA1" style="html=1;" vertex="1" parent="1">
          <mxGeometry x="10" y="210" width="120" height="50" as="geometry" />
        </mxCell>
        <mxCell id="CsxcGwLY2P6ZBR0HJjW4-56" value="ConcreteProduceB1" style="html=1;" vertex="1" parent="1">
          <mxGeometry x="160" y="210" width="120" height="50" as="geometry" />
        </mxCell>
        <mxCell id="CsxcGwLY2P6ZBR0HJjW4-57" value="ConcreteProduceA2" style="html=1;" vertex="1" parent="1">
          <mxGeometry x="10" y="470" width="120" height="50" as="geometry" />
        </mxCell>
        <mxCell id="CsxcGwLY2P6ZBR0HJjW4-58" value="ConcreteProduceB2" style="html=1;" vertex="1" parent="1">
          <mxGeometry x="160" y="470" width="120" height="50" as="geometry" />
        </mxCell>
        <mxCell id="CsxcGwLY2P6ZBR0HJjW4-59" value="Extends" style="endArrow=block;endSize=16;endFill=0;html=1;rounded=0;exitX=0.5;exitY=0;exitDx=0;exitDy=0;" edge="1" parent="1" source="CsxcGwLY2P6ZBR0HJjW4-57" target="CsxcGwLY2P6ZBR0HJjW4-53">
          <mxGeometry width="160" relative="1" as="geometry">
            <mxPoint x="20" y="430" as="sourcePoint" />
            <mxPoint x="180" y="430" as="targetPoint" />
          </mxGeometry>
        </mxCell>
        <mxCell id="CsxcGwLY2P6ZBR0HJjW4-60" value="Extends" style="endArrow=block;endSize=16;endFill=0;html=1;rounded=0;exitX=0.5;exitY=0;exitDx=0;exitDy=0;" edge="1" parent="1">
          <mxGeometry width="160" relative="1" as="geometry">
            <mxPoint x="219.5" y="470" as="sourcePoint" />
            <mxPoint x="219.5" y="400" as="targetPoint" />
          </mxGeometry>
        </mxCell>
        <mxCell id="CsxcGwLY2P6ZBR0HJjW4-61" value="Extends" style="endArrow=block;endSize=16;endFill=0;html=1;rounded=0;entryX=0.5;entryY=0;entryDx=0;entryDy=0;exitX=0.5;exitY=1;exitDx=0;exitDy=0;" edge="1" parent="1" source="CsxcGwLY2P6ZBR0HJjW4-55" target="CsxcGwLY2P6ZBR0HJjW4-53">
          <mxGeometry width="160" relative="1" as="geometry">
            <mxPoint x="40" y="280" as="sourcePoint" />
            <mxPoint x="80" y="260" as="targetPoint" />
          </mxGeometry>
        </mxCell>
        <mxCell id="CsxcGwLY2P6ZBR0HJjW4-62" value="Extends" style="endArrow=block;endSize=16;endFill=0;html=1;rounded=0;entryX=0.5;entryY=0;entryDx=0;entryDy=0;exitX=0.5;exitY=1;exitDx=0;exitDy=0;" edge="1" parent="1">
          <mxGeometry width="160" relative="1" as="geometry">
            <mxPoint x="219.5" y="260" as="sourcePoint" />
            <mxPoint x="219.5" y="350" as="targetPoint" />
          </mxGeometry>
        </mxCell>
        <mxCell id="CsxcGwLY2P6ZBR0HJjW4-64" value="AbstractFactory(也可以是接口)" style="swimlane;fontStyle=3;align=center;verticalAlign=top;childLayout=stackLayout;horizontal=1;startSize=26;horizontalStack=0;resizeParent=1;resizeParentMax=0;resizeLast=0;collapsible=1;marginBottom=0;" vertex="1" parent="1">
          <mxGeometry x="334" y="332" width="220" height="100" as="geometry" />
        </mxCell>
        <mxCell id="CsxcGwLY2P6ZBR0HJjW4-65" value="...." style="text;strokeColor=none;fillColor=none;align=left;verticalAlign=top;spacingLeft=4;spacingRight=4;overflow=hidden;rotatable=0;points=[[0,0.5],[1,0.5]];portConstraint=eastwest;" vertex="1" parent="CsxcGwLY2P6ZBR0HJjW4-64">
          <mxGeometry y="26" width="220" height="26" as="geometry" />
        </mxCell>
        <mxCell id="CsxcGwLY2P6ZBR0HJjW4-66" value="" style="line;strokeWidth=1;fillColor=none;align=left;verticalAlign=middle;spacingTop=-1;spacingLeft=3;spacingRight=3;rotatable=0;labelPosition=right;points=[];portConstraint=eastwest;strokeColor=inherit;" vertex="1" parent="CsxcGwLY2P6ZBR0HJjW4-64">
          <mxGeometry y="52" width="220" height="8" as="geometry" />
        </mxCell>
        <mxCell id="CsxcGwLY2P6ZBR0HJjW4-67" value="+ createProduceA(): AbstractProduceA&#xa;+ createProduceB(): AbstractProduceB" style="text;strokeColor=none;fillColor=none;align=left;verticalAlign=top;spacingLeft=4;spacingRight=4;overflow=hidden;rotatable=0;points=[[0,0.5],[1,0.5]];portConstraint=eastwest;" vertex="1" parent="CsxcGwLY2P6ZBR0HJjW4-64">
          <mxGeometry y="60" width="220" height="40" as="geometry" />
        </mxCell>
        <mxCell id="CsxcGwLY2P6ZBR0HJjW4-68" value="ConcreteFactory1" style="swimlane;fontStyle=1;align=center;verticalAlign=top;childLayout=stackLayout;horizontal=1;startSize=26;horizontalStack=0;resizeParent=1;resizeParentMax=0;resizeLast=0;collapsible=1;marginBottom=0;" vertex="1" parent="1">
          <mxGeometry x="334" y="168" width="220" height="100" as="geometry" />
        </mxCell>
        <mxCell id="CsxcGwLY2P6ZBR0HJjW4-69" value="...." style="text;strokeColor=none;fillColor=none;align=left;verticalAlign=top;spacingLeft=4;spacingRight=4;overflow=hidden;rotatable=0;points=[[0,0.5],[1,0.5]];portConstraint=eastwest;" vertex="1" parent="CsxcGwLY2P6ZBR0HJjW4-68">
          <mxGeometry y="26" width="220" height="26" as="geometry" />
        </mxCell>
        <mxCell id="CsxcGwLY2P6ZBR0HJjW4-70" value="" style="line;strokeWidth=1;fillColor=none;align=left;verticalAlign=middle;spacingTop=-1;spacingLeft=3;spacingRight=3;rotatable=0;labelPosition=right;points=[];portConstraint=eastwest;strokeColor=inherit;" vertex="1" parent="CsxcGwLY2P6ZBR0HJjW4-68">
          <mxGeometry y="52" width="220" height="8" as="geometry" />
        </mxCell>
        <mxCell id="CsxcGwLY2P6ZBR0HJjW4-71" value="+ createProduceA(): AbstractProduceA&#xa;+ createProduceB(): AbstractProduceB" style="text;strokeColor=none;fillColor=none;align=left;verticalAlign=top;spacingLeft=4;spacingRight=4;overflow=hidden;rotatable=0;points=[[0,0.5],[1,0.5]];portConstraint=eastwest;" vertex="1" parent="CsxcGwLY2P6ZBR0HJjW4-68">
          <mxGeometry y="60" width="220" height="40" as="geometry" />
        </mxCell>
        <mxCell id="CsxcGwLY2P6ZBR0HJjW4-72" value="ConcreteFactory2" style="swimlane;fontStyle=1;align=center;verticalAlign=top;childLayout=stackLayout;horizontal=1;startSize=26;horizontalStack=0;resizeParent=1;resizeParentMax=0;resizeLast=0;collapsible=1;marginBottom=0;" vertex="1" parent="1">
          <mxGeometry x="334" y="489" width="220" height="100" as="geometry" />
        </mxCell>
        <mxCell id="CsxcGwLY2P6ZBR0HJjW4-73" value="...." style="text;strokeColor=none;fillColor=none;align=left;verticalAlign=top;spacingLeft=4;spacingRight=4;overflow=hidden;rotatable=0;points=[[0,0.5],[1,0.5]];portConstraint=eastwest;" vertex="1" parent="CsxcGwLY2P6ZBR0HJjW4-72">
          <mxGeometry y="26" width="220" height="26" as="geometry" />
        </mxCell>
        <mxCell id="CsxcGwLY2P6ZBR0HJjW4-74" value="" style="line;strokeWidth=1;fillColor=none;align=left;verticalAlign=middle;spacingTop=-1;spacingLeft=3;spacingRight=3;rotatable=0;labelPosition=right;points=[];portConstraint=eastwest;strokeColor=inherit;" vertex="1" parent="CsxcGwLY2P6ZBR0HJjW4-72">
          <mxGeometry y="52" width="220" height="8" as="geometry" />
        </mxCell>
        <mxCell id="CsxcGwLY2P6ZBR0HJjW4-75" value="+ createProduceA(): AbstractProduceA&#xa;+ createProduceB(): AbstractProduceB" style="text;strokeColor=none;fillColor=none;align=left;verticalAlign=top;spacingLeft=4;spacingRight=4;overflow=hidden;rotatable=0;points=[[0,0.5],[1,0.5]];portConstraint=eastwest;" vertex="1" parent="CsxcGwLY2P6ZBR0HJjW4-72">
          <mxGeometry y="60" width="220" height="40" as="geometry" />
        </mxCell>
        <mxCell id="CsxcGwLY2P6ZBR0HJjW4-76" value="Extends" style="endArrow=block;endSize=16;endFill=0;html=1;rounded=0;entryX=0.5;entryY=0;entryDx=0;entryDy=0;" edge="1" parent="1" source="CsxcGwLY2P6ZBR0HJjW4-71" target="CsxcGwLY2P6ZBR0HJjW4-64">
          <mxGeometry width="160" relative="1" as="geometry">
            <mxPoint x="444" y="290" as="sourcePoint" />
            <mxPoint x="443.5" y="370" as="targetPoint" />
          </mxGeometry>
        </mxCell>
        <mxCell id="CsxcGwLY2P6ZBR0HJjW4-77" value="Extends" style="endArrow=block;endSize=16;endFill=0;html=1;rounded=0;exitX=0.5;exitY=0;exitDx=0;exitDy=0;" edge="1" parent="1" source="CsxcGwLY2P6ZBR0HJjW4-72">
          <mxGeometry width="160" relative="1" as="geometry">
            <mxPoint x="444" y="480" as="sourcePoint" />
            <mxPoint x="443.5" y="432" as="targetPoint" />
          </mxGeometry>
        </mxCell>
        <mxCell id="CsxcGwLY2P6ZBR0HJjW4-78" value="Use" style="endArrow=open;endSize=12;dashed=1;html=1;rounded=0;entryX=0.5;entryY=0;entryDx=0;entryDy=0;exitX=0.5;exitY=0;exitDx=0;exitDy=0;" edge="1" parent="1" source="CsxcGwLY2P6ZBR0HJjW4-68" target="CsxcGwLY2P6ZBR0HJjW4-55">
          <mxGeometry width="160" relative="1" as="geometry">
            <mxPoint x="420" y="150" as="sourcePoint" />
            <mxPoint x="580" y="150" as="targetPoint" />
            <Array as="points">
              <mxPoint x="444" y="70" />
              <mxPoint x="70" y="70" />
            </Array>
          </mxGeometry>
        </mxCell>
        <mxCell id="CsxcGwLY2P6ZBR0HJjW4-79" value="Use" style="endArrow=open;endSize=12;dashed=1;html=1;rounded=0;exitX=0.5;exitY=0;exitDx=0;exitDy=0;entryX=0.5;entryY=0;entryDx=0;entryDy=0;" edge="1" parent="1" source="CsxcGwLY2P6ZBR0HJjW4-68" target="CsxcGwLY2P6ZBR0HJjW4-56">
          <mxGeometry width="160" relative="1" as="geometry">
            <mxPoint x="454" y="178" as="sourcePoint" />
            <mxPoint x="110" y="190" as="targetPoint" />
            <Array as="points">
              <mxPoint x="444" y="120" />
              <mxPoint x="220" y="120" />
            </Array>
          </mxGeometry>
        </mxCell>
        <mxCell id="CsxcGwLY2P6ZBR0HJjW4-80" value="Use" style="endArrow=open;endSize=12;dashed=1;html=1;rounded=0;entryX=0.5;entryY=1;entryDx=0;entryDy=0;exitX=0.451;exitY=1.05;exitDx=0;exitDy=0;exitPerimeter=0;" edge="1" parent="1" source="CsxcGwLY2P6ZBR0HJjW4-75" target="CsxcGwLY2P6ZBR0HJjW4-57">
          <mxGeometry width="160" relative="1" as="geometry">
            <mxPoint x="310" y="680" as="sourcePoint" />
            <mxPoint x="470" y="680" as="targetPoint" />
            <Array as="points">
              <mxPoint x="433" y="680" />
              <mxPoint x="70" y="680" />
            </Array>
          </mxGeometry>
        </mxCell>
        <mxCell id="CsxcGwLY2P6ZBR0HJjW4-81" value="Use" style="endArrow=open;endSize=12;dashed=1;html=1;rounded=0;entryX=0.63;entryY=1.076;entryDx=0;entryDy=0;entryPerimeter=0;" edge="1" parent="1">
          <mxGeometry width="160" relative="1" as="geometry">
            <mxPoint x="432" y="590" as="sourcePoint" />
            <mxPoint x="237.5999999999999" y="523.8" as="targetPoint" />
            <Array as="points">
              <mxPoint x="432" y="650" />
              <mxPoint x="238" y="650" />
            </Array>
          </mxGeometry>
        </mxCell>
        <mxCell id="CsxcGwLY2P6ZBR0HJjW4-82" value="Client" style="swimlane;fontStyle=1;align=center;verticalAlign=top;childLayout=stackLayout;horizontal=1;startSize=26;horizontalStack=0;resizeParent=1;resizeParentMax=0;resizeLast=0;collapsible=1;marginBottom=0;" vertex="1" parent="1">
          <mxGeometry x="640" y="337" width="190" height="100" as="geometry" />
        </mxCell>
        <mxCell id="CsxcGwLY2P6ZBR0HJjW4-83" value="- factory: AbstractFactory" style="text;strokeColor=none;fillColor=none;align=left;verticalAlign=top;spacingLeft=4;spacingRight=4;overflow=hidden;rotatable=0;points=[[0,0.5],[1,0.5]];portConstraint=eastwest;" vertex="1" parent="CsxcGwLY2P6ZBR0HJjW4-82">
          <mxGeometry y="26" width="190" height="26" as="geometry" />
        </mxCell>
        <mxCell id="CsxcGwLY2P6ZBR0HJjW4-84" value="" style="line;strokeWidth=1;fillColor=none;align=left;verticalAlign=middle;spacingTop=-1;spacingLeft=3;spacingRight=3;rotatable=0;labelPosition=right;points=[];portConstraint=eastwest;strokeColor=inherit;" vertex="1" parent="CsxcGwLY2P6ZBR0HJjW4-82">
          <mxGeometry y="52" width="190" height="8" as="geometry" />
        </mxCell>
        <mxCell id="CsxcGwLY2P6ZBR0HJjW4-85" value="+ Clien(AbstractFactory factory)&#xa;+ doSome()" style="text;strokeColor=none;fillColor=none;align=left;verticalAlign=top;spacingLeft=4;spacingRight=4;overflow=hidden;rotatable=0;points=[[0,0.5],[1,0.5]];portConstraint=eastwest;" vertex="1" parent="CsxcGwLY2P6ZBR0HJjW4-82">
          <mxGeometry y="60" width="190" height="40" as="geometry" />
        </mxCell>
        <mxCell id="CsxcGwLY2P6ZBR0HJjW4-86" value="AbstractProduceA pa = factory.createProduceA()&lt;br&gt;....&lt;br&gt;AbstractProduceB pb = factory.createProduceB()&lt;br&gt;...." style="shape=note;whiteSpace=wrap;html=1;backgroundOutline=1;darkOpacity=0.05;align=left;fillColor=#6d8764;strokeColor=#3A5431;fontColor=#ffffff;" vertex="1" parent="1">
          <mxGeometry x="620" y="500" width="280" height="85" as="geometry" />
        </mxCell>
        <mxCell id="CsxcGwLY2P6ZBR0HJjW4-87" value="" style="endArrow=none;dashed=1;html=1;dashPattern=1 3;strokeWidth=2;rounded=0;exitX=0;exitY=0.5;exitDx=0;exitDy=0;exitPerimeter=0;entryX=-0.006;entryY=0.81;entryDx=0;entryDy=0;entryPerimeter=0;" edge="1" parent="1" source="CsxcGwLY2P6ZBR0HJjW4-86" target="CsxcGwLY2P6ZBR0HJjW4-85">
          <mxGeometry width="50" height="50" relative="1" as="geometry">
            <mxPoint x="600" y="500" as="sourcePoint" />
            <mxPoint x="640" y="420" as="targetPoint" />
            <Array as="points">
              <mxPoint x="600" y="543" />
              <mxPoint x="600" y="430" />
            </Array>
          </mxGeometry>
        </mxCell>
        <mxCell id="CsxcGwLY2P6ZBR0HJjW4-88" value="" style="endArrow=open;endFill=1;endSize=12;html=1;rounded=0;exitX=0;exitY=0.5;exitDx=0;exitDy=0;entryX=0.982;entryY=0.692;entryDx=0;entryDy=0;entryPerimeter=0;" edge="1" parent="1" source="CsxcGwLY2P6ZBR0HJjW4-83" target="CsxcGwLY2P6ZBR0HJjW4-65">
          <mxGeometry width="160" relative="1" as="geometry">
            <mxPoint x="630" y="250" as="sourcePoint" />
            <mxPoint x="560" y="380" as="targetPoint" />
          </mxGeometry>
        </mxCell>
      </root>
    </mxGraphModel>
  </diagram>
</mxfile>
